<svg xmlns="http://www.w3.org/2000/svg" xmlns:xlink="http://www.w3.org/1999/xlink" width="911.317" height="776.385" viewBox="0 0 911.317 776.385">
  <defs>
    <linearGradient id="linear-gradient" x1="0.5" y1="1" x2="0.5" gradientUnits="objectBoundingBox">
      <stop offset="0" stop-color="gray" stop-opacity="0.251"/>
      <stop offset="0.54" stop-color="gray" stop-opacity="0.122"/>
      <stop offset="1" stop-color="gray" stop-opacity="0.102"/>
    </linearGradient>
  </defs>
  <g id="undraw_book_lover_mkck" transform="translate(0 -0.008)">
    <path id="Path_1" data-name="Path 1" d="M624.47,175.8c-57.662-2.148-112.588-22.093-165.029-43.92S355.059,85.872,298.778,74.309c-36.2-7.438-77.6-8.488-106.761,12.307-28.074,20.05-37.143,54.565-42.017,86.627-3.671,24.118-5.827,49.5,4.232,72.076,6.976,15.677,19.369,28.853,27.931,43.92,29.82,52.245,8.749,116.673-23.565,167.687-15.146,23.936-32.742,46.784-44.431,72.238s-17.106,54.661-6.878,80.65c10.148,25.779,34.319,45.1,60.495,58.709,53.18,27.641,115.822,35.546,176.95,40.024,135.271,9.92,271.256,5.624,406.883,1.327,50.2-1.594,100.6-3.208,149.981-11.524,27.423-4.621,55.728-11.944,75.641-29.646,25.267-22.466,31.53-60.514,14.6-88.679-28.412-47.252-106.913-58.986-126.8-109.7-10.923-27.908.3-59,16.179-84.889,34.07-55.53,91.17-104.252,94.181-167.725,2.067-43.6-25.392-87.257-67.836-107.889-44.485-21.7-106.191-18.952-139,16.842C734.769,163.542,675.379,177.692,624.47,175.8Z" transform="translate(-90.005 -44.596)" fill="#388186" opacity="0.1"/>
    <path id="Path_2" data-name="Path 2" d="M395.146,677.275,89.527,675.68,59.16,599.518l107.379-8.335-18.715-83.5,212.383-29.436-203.374-75.6L174.8,398.08,501.82,455.128,483.81,585.445l-25.742,71.617Z" transform="translate(-6.337 -18.004)" fill="#388186"/>
    <path id="Path_3" data-name="Path 3" d="M187,698.825s18.751-3.208,30,10.961c0,0-8.25,6.951-26-2.673Z" transform="translate(-99.122 -73.048)" fill="#388186"/>
    <path id="Path_4" data-name="Path 4" d="M183.876,698.51s-11.965,15.744-6.072,33.274c0,0,9.75-4.172,10.813-25.426Z" transform="translate(-97.962 -73.048)" fill="#388186"/>
    <path id="Path_5" data-name="Path 5" d="M172.76,671.159s7.5-14.713,37.5,5.881c0,0-4,9.891-17.251,9.089S176.26,678.912,172.76,671.159Z" transform="translate(-97.596 -71.58)" fill="#388186"/>
    <path id="Path_6" data-name="Path 6" d="M168.542,670.289s-15.563-1.91-17.072,36.186c0,0,9.866,2.186,16.876-9.863S172.48,677.8,168.542,670.289Z" transform="translate(-95.316 -71.77)" fill="#388186"/>
    <path id="Path_7" data-name="Path 7" d="M160.44,637.792s8.75-25.932,40.5-7.485c0,0-7.25,23.793-37.251,16.308Z" transform="translate(-96.277 -69.663)" fill="#388186"/>
    <path id="Path_8" data-name="Path 8" d="M149.52,597.281s16.5-26.2,45.752-1.91c0,0-10.25,24.595-43.252,11.228Z" transform="translate(-95.107 -67.916)" fill="#388186"/>
    <path id="Path_9" data-name="Path 9" d="M145.6,558.713s19.251-24.07,48.216,0c0,0-18.251,21.12-48.216,6.149Z" transform="translate(-94.687 -66.241)" fill="#388186"/>
    <path id="Path_10" data-name="Path 10" d="M142.24,521.142s19.5-25.13,47.252-1.337c0,0-22,22.189-47.252,7.218Z" transform="translate(-94.327 -64.502)" fill="#388186"/>
    <path id="Path_11" data-name="Path 11" d="M144.2,487.515s20.537-32.348,46.5-10.426c0,0-22,27.8-46.5,16.575Z" transform="translate(-94.537 -62.689)" fill="#388186"/>
    <path id="Path_12" data-name="Path 12" d="M149.52,448.656s21.751-32.08,47-7.485c0,0-25.751,27.8-47,13.367Z" transform="translate(-95.107 -60.989)" fill="#388186"/>
    <path id="Path_13" data-name="Path 13" d="M157.505,413.667s25.751-30.152,48.216-18.141c0,0-26.831,32.023-49.341,26.142Z" transform="translate(-95.842 -59.217)" fill="#388186"/>
    <path id="Path_14" data-name="Path 14" d="M167.467,380.4s29.715-36.931,47-24.595c0,0-21.894,28.643-49.109,31.508Z" transform="translate(-96.804 -57.434)" fill="#388186"/>
    <path id="Path_15" data-name="Path 15" d="M181.851,342.3s26.01-30.152,45.011-22.666c0,0-22.251,31.278-48.5,32.08Z" transform="translate(-98.196 -55.858)" fill="#388186"/>
    <path id="Path_16" data-name="Path 16" d="M195.29,306.495s28.751-28.872,41.252-23.793c0,0-20.751,32.08-42.5,30.209Z" transform="translate(-99.876 -54.215)" fill="#388186"/>
    <path id="Path_17" data-name="Path 17" d="M208.32,273.1s24.751-34.5,38.26-31.823c0,0-15.01,30.753-38.26,35.327Z" transform="translate(-101.405 -52.361)" fill="#388186"/>
    <path id="Path_18" data-name="Path 18" d="M222.192,228.81s21.876-26.438,33.7-26.38c0,0-17.269,35.327-34.6,35Z" transform="translate(-102.794 -50.611)" fill="#388186"/>
    <path id="Path_19" data-name="Path 19" d="M230.258,197.791l21.135-55.071s1.054,49.782-23.822,65.287Z" transform="translate(-103.467 -47.911)" fill="#388186"/>
    <path id="Path_20" data-name="Path 20" d="M240.173,134.434s3.5-45.991,1.25-49.734c0,0,15.108,38.239-1.393,70.052Z" transform="translate(-104.802 -45.287)" fill="#388186"/>
    <path id="Path_21" data-name="Path 21" d="M155.19,637.681s-21.912-14.522-36.1,21c0,0,19.5,13.844,38.68-11.944Z" transform="translate(-91.848 -70.164)" fill="#388186"/>
    <path id="Path_22" data-name="Path 22" d="M143.942,596.2s-26.876-13.109-39.912,23.984c0,0,20.76,15.276,42.359-14.608Z" transform="translate(-90.235 -68.319)" fill="#388186"/>
    <path id="Path_23" data-name="Path 23" d="M138.416,561.023s-19.251-24.07-48.216,0c0,0,18.251,21.12,48.216,6.149Z" transform="translate(-88.754 -66.346)" fill="#388186"/>
    <path id="Path_24" data-name="Path 24" d="M135.832,521.142s-19.5-25.13-47.252-1.337c0,0,22,22.189,47.252,7.218Z" transform="translate(-88.58 -64.502)" fill="#388186"/>
    <path id="Path_25" data-name="Path 25" d="M138.992,488.167s-13.679-36.234-43.412-20.652c0,0,16.072,32.128,42.2,26.667Z" transform="translate(-89.33 -62.424)" fill="#388186"/>
    <path id="Path_26" data-name="Path 26" d="M146.2,448.109s-13.6-36.864-43.752-19.773c0,0,18.465,33.789,42.412,25.464Z" transform="translate(-90.066 -60.624)" fill="#388186"/>
    <path id="Path_27" data-name="Path 27" d="M157.248,412.764s-5.357-40.416-30.358-44.034c0,0,5.3,42.621,26.992,51.319Z" transform="translate(-92.683 -58.133)" fill="#388186"/>
    <path id="Path_28" data-name="Path 28" d="M165.7,379.373s-2.089-48.693-22.76-50.393c0,0,.7,36.959,20.429,57.286Z" transform="translate(-94.402 -56.335)" fill="#388186"/>
    <path id="Path_29" data-name="Path 29" d="M181.564,339.848S175.4,299.356,155.67,294.41c0,0,2.447,39.213,23.938,55.377Z" transform="translate(-95.766 -54.771)" fill="#388186"/>
    <path id="Path_30" data-name="Path 30" d="M196.383,305.708s-.205-42.182-12.259-48.378c0,0-7.474,38.191,8.768,53.763Z" transform="translate(-98.63 -53.094)" fill="#388186"/>
    <path id="Path_31" data-name="Path 31" d="M207.591,271.763s-1.688-43.433-14.17-49.553c0,0-4.268,34.372,12.3,52.4Z" transform="translate(-99.756 -51.506)" fill="#388186"/>
    <path id="Path_32" data-name="Path 32" d="M222.823,231.624s-.071-35.327-8.982-43.614c0,0-8.857,38.7,4.331,50.718Z" transform="translate(-101.685 -49.959)" fill="#388186"/>
    <path id="Path_33" data-name="Path 33" d="M227.973,195.795,219.3,137s-11.777,48.178,9.081,69.412Z" transform="translate(-102.227 -47.652)" fill="#388186"/>
    <path id="Path_34" data-name="Path 34" d="M228.685,135.29s-22.251-39.528-21.8-43.92c0,0,2.366,41.428,30.358,62.06Z" transform="translate(-101.251 -45.588)" fill="#388186"/>
    <path id="Path_35" data-name="Path 35" d="M230.561,122.265s-21-56.141-30.5-60.685c0,0,30,16.308,32.251,59.081Z" transform="translate(-100.52 -44.241)" fill="#388186"/>
    <path id="Path_36" data-name="Path 36" d="M221,234.1l-1.438-.468c17.724-61.8,22.144-101.206,12.456-111.088l1.027-1.165C243.32,131.806,239.15,170.78,221,234.1Z" transform="translate(-102.609 -46.946)" fill="#444053"/>
    <path id="Path_37" data-name="Path 37" d="M166.255,383.931l-2.125-.812c1.884-5.662,3.911-11.41,6.036-17.071,18.5-49.3,34.251-95.172,44.35-130.384l1.848-.955c-10.116,35.279-25.59,82.9-44.109,132.274C170.139,372.541,168.121,378.26,166.255,383.931Z" transform="translate(-96.672 -52.071)" fill="#444053"/>
    <path id="Path_38" data-name="Path 38" d="M208.37,730.912c-.286-.334-29.01-34.926-49.038-93.978a369.045,369.045,0,0,1-19.349-107.679c-1.375-45.953,7.643-97.263,23.09-143.875l1.679,2.1c-34.68,104.614-20.9,194.258-2.625,248.241,19.813,58.518,48.216,92.727,48.493,93.071Z" transform="translate(-94.071 -58.886)" fill="#444053"/>
    <path id="Path_39" data-name="Path 39" d="M696.706,670.36s-20.242,26.419-4.17,66.357l-161.613,74.95-15.51,3.475-7.143-33.417,4.777-42.172V716.5Z" transform="translate(-134.551 -71.774)" fill="#d5d6db"/>
    <path id="Path_40" data-name="Path 40" d="M59.16,606.995l223.687-43.6,296.4,50.488-184.1,70.873Z" transform="translate(-6.337 -25.48)" fill="#388186"/>
    <path id="Path_41" data-name="Path 41" d="M59.16,606.995l223.687-43.6,296.4,50.488-184.1,70.873Z" transform="translate(-6.337 -25.48)" fill="#388186"/>
    <path id="Path_42" data-name="Path 42" d="M146.73,652.47s-20.92,42.382,3.188,81.528l331.709,76.859s-20.59-33.761,1.063-80.621Z" transform="translate(-93.906 -70.965)" fill="#388186"/>
    <path id="Path_43" data-name="Path 43" d="M146.73,652.47s-20.92,42.382,3.188,81.528l331.709,76.859s-20.59-33.761,1.063-80.621Z" transform="translate(-93.906 -70.965)" opacity="0.1"/>
    <path id="Path_44" data-name="Path 44" d="M158.173,667.86s-11.956,31.011,0,51.08" transform="translate(-95.465 -71.661)" opacity="0.1"/>
    <path id="Path_45" data-name="Path 45" d="M483.019,814.357l185.186-84.5s10.358,2.387,3.661,10.5-185.275,82.11-185.275,82.11L151.31,737.5Z" transform="translate(-95.299 -74.465)" fill="#388186"/>
    <path id="Path_46" data-name="Path 46" d="M483.019,814.357l185.186-84.5s10.358,2.387,3.661,10.5-185.275,82.11-185.275,82.11L151.31,737.5Z" transform="translate(-95.299 -74.465)" opacity="0.1"/>
    <path id="Path_47" data-name="Path 47" d="M504.858,742.86s-17.858,22.915,0,57.286" transform="translate(-133.11 -75.053)" opacity="0.1"/>
    <path id="Path_147" data-name="Path 147" d="M.027,2,85.054.244l-.019.949L.009,2.95Z" transform="translate(377.344 694.104) rotate(-18.45)" opacity="0.1"/>
    <path id="Path_148" data-name="Path 148" d="M.032,2.7,103.821.33l-.021.947L.012,3.646Z" transform="translate(376.965 701.169) rotate(-20.82)" opacity="0.1"/>
    <path id="Path_149" data-name="Path 149" d="M.036,3.3,120.477.4l-.022.946L.014,4.247Z" transform="translate(377.191 709.699) rotate(-22.26)" opacity="0.1"/>
    <path id="Path_150" data-name="Path 150" d="M.041,4.068,138.927.5l-.023.944L.018,5.012Z" transform="translate(378.029 717.041) rotate(-24.31)" opacity="0.1"/>
    <path id="Path_151" data-name="Path 151" d="M.041,4.352,151.85.533l-.023.945L.019,5.3Z" transform="matrix(0.916, -0.401, 0.401, 0.916, 378.935, 720.648)" opacity="0.1"/>
    <path id="Path_152" data-name="Path 152" d="M.044,5.165,181.669.633l-.023.945L.021,6.11Z" transform="translate(380.663 726.425) rotate(-23.36)" opacity="0.1"/>
    <path id="Path_48" data-name="Path 48" d="M152.23,612.267,309.379,576.94l95.736,19.573-128.773,44.4Z" transform="translate(-16.305 -26.093)" fill="#fff" opacity="0.3"/>
    <path id="Path_49" data-name="Path 49" d="M708.123,659.69s8.125,3.5,3.357,8.918S524,730.563,524,730.563Z" transform="translate(-136.275 -71.292)" fill="#388186"/>
    <path id="Path_50" data-name="Path 50" d="M796,574.18s-20.233,26.409-4.161,66.357l-161.614,74.95-15.51,3.494-7.143-33.417,4.848-42.163V620.324Z" transform="translate(-145.428 -67.424)" fill="#d5d6db"/>
    <path id="Path_51" data-name="Path 51" d="M158.46,510.8,382.138,467.21l296.4,50.488-184.1,70.873Z" transform="translate(-17.681 -21.13)" fill="#3a3768"/>
    <path id="Path_52" data-name="Path 52" d="M245.989,556.29s-20.929,42.382,3.179,81.528l331.709,76.859s-20.581-33.789,1.1-80.63Z" transform="translate(-104.537 -66.615)" fill="#3a3768"/>
    <path id="Path_53" data-name="Path 53" d="M245.989,556.29s-20.929,42.382,3.179,81.528l331.709,76.859s-20.581-33.789,1.1-80.63l-104.9-24.28Z" transform="translate(-104.537 -66.615)" opacity="0.1"/>
    <path id="Path_54" data-name="Path 54" d="M257.463,571.68s-11.947,31,0,51.08" transform="translate(-106.1 -67.311)" opacity="0.1"/>
    <path id="Path_55" data-name="Path 55" d="M582.309,718.177,767.5,633.68s10.349,2.387,3.652,10.5-185.275,82.11-185.275,82.11L250.6,641.318Z" transform="translate(-106.664 -70.116)" fill="#3a3768"/>
    <path id="Path_56" data-name="Path 56" d="M582.309,718.177,767.5,633.68s10.349,2.387,3.652,10.5-185.275,82.11-185.275,82.11L250.6,641.318Z" transform="translate(-106.664 -70.116)" opacity="0.1"/>
    <path id="Path_57" data-name="Path 57" d="M604.148,646.68s-17.858,22.914,0,57.286" transform="translate(-143.938 -70.703)" opacity="0.1"/>
    <path id="Path_153" data-name="Path 153" d="M.027,2,85.054.244l-.019.949L.009,2.95Z" transform="translate(465.796 602.283) rotate(-18.45)" opacity="0.1"/>
    <path id="Path_154" data-name="Path 154" d="M.032,2.7,103.821.33l-.021.947L.012,3.646Z" transform="translate(465.425 609.345) rotate(-20.82)" opacity="0.1"/>
    <path id="Path_155" data-name="Path 155" d="M.036,3.3,120.477.4l-.022.946L.014,4.247Z" transform="translate(465.633 617.862) rotate(-22.26)" opacity="0.1"/>
    <path id="Path_156" data-name="Path 156" d="M.041,4.068,138.927.5l-.023.944L.018,5.012Z" transform="translate(466.478 625.205) rotate(-24.31)" opacity="0.1"/>
    <path id="Path_157" data-name="Path 157" d="M.041,4.352,151.85.533l-.023.945L.019,5.3Z" transform="matrix(0.916, -0.401, 0.401, 0.916, 467.368, 628.8)" opacity="0.1"/>
    <path id="Path_158" data-name="Path 158" d="M.044,5.165,181.669.633l-.023.945L.021,6.11Z" transform="translate(469.094 634.577) rotate(-23.36)" opacity="0.1"/>
    <path id="Path_58" data-name="Path 58" d="M251.53,516.087,408.679,480.76l95.736,19.573-128.773,44.4Z" transform="translate(-27.611 -21.743)" fill="#fff" opacity="0.45"/>
    <path id="Path_59" data-name="Path 59" d="M807.426,563.51s8.116,3.5,3.357,8.908S623.33,634.373,623.33,634.373Z" transform="translate(-147.155 -66.942)" fill="#3a3768"/>
    <path id="Path_60" data-name="Path 60" d="M805.4,464.15s-20.242,47.424-4.17,87.362L639.617,605.456l-15.474,3.5L617,575.543l4.777-42.172V510.294Z" transform="translate(-146.461 -62.448)" fill="#d5d6db"/>
    <path id="Path_61" data-name="Path 61" d="M167.89,400.784l223.687-43.6,296.4,50.488L503.876,478.541Z" transform="translate(-18.734 -16.154)" fill="#388186"/>
    <path id="Path_62" data-name="Path 62" d="M255.457,446.26s-20.956,42.382,3.152,81.528l331.709,76.859s-20.59-33.789,1.089-80.621Z" transform="translate(-106.039 -61.639)" fill="#388186"/>
    <path id="Path_63" data-name="Path 63" d="M255.457,446.26s-20.956,42.382,3.152,81.528l331.709,76.859s-20.59-33.789,1.089-80.621Z" transform="translate(-106.039 -61.639)" opacity="0.1"/>
    <path id="Path_64" data-name="Path 64" d="M266.9,461.65s-11.956,31.011,0,51.08" transform="translate(-107.111 -62.335)" opacity="0.1"/>
    <path id="Path_65" data-name="Path 65" d="M591.749,608.509l185.186-63.492s10.358,2.387,3.661,10.5-185.275,61.105-185.275,61.105L260.04,531.65Z" transform="translate(-107.717 -65.501)" fill="#388186"/>
    <path id="Path_66" data-name="Path 66" d="M591.749,608.509l185.186-63.492s10.358,2.387,3.661,10.5-185.275,61.105-185.275,61.105L260.04,531.65Z" transform="translate(-107.717 -65.501)" opacity="0.1"/>
    <path id="Path_67" data-name="Path 67" d="M613.588,536.65s-17.858,22.915,0,57.286" transform="translate(-144.968 -65.727)" opacity="0.1"/>
    <path id="Path_159" data-name="Path 159" d="M.027,2,85.054.244l-.019.949L.009,2.95Z" transform="translate(474.207 497.228) rotate(-18.45)" opacity="0.1"/>
    <path id="Path_160" data-name="Path 160" d="M.032,2.7,103.821.33l-.021.947L.012,3.646Z" transform="translate(473.83 504.295) rotate(-20.82)" opacity="0.1"/>
    <path id="Path_161" data-name="Path 161" d="M.036,3.3,120.477.4l-.022.946L.014,4.247Z" transform="translate(474.029 512.816) rotate(-22.26)" opacity="0.1"/>
    <path id="Path_162" data-name="Path 162" d="M.041,4.068,138.927.5l-.023.944L.018,5.012Z" transform="translate(474.887 520.151) rotate(-24.31)" opacity="0.1"/>
    <path id="Path_163" data-name="Path 163" d="M.041,4.352,151.85.533l-.023.945L.019,5.3Z" transform="matrix(0.916, -0.401, 0.401, 0.916, 475.78, 523.755)" opacity="0.1"/>
    <path id="Path_164" data-name="Path 164" d="M.044,5.165,181.669.633l-.023.945L.021,6.11Z" transform="translate(477.503 529.538) rotate(-23.36)" opacity="0.1"/>
    <path id="Path_68" data-name="Path 68" d="M260.96,406.057,418.109,370.73,513.845,390.3,385.072,434.7Z" transform="translate(-28.646 -16.767)" fill="#fff" opacity="0.3"/>
    <path id="Path_69" data-name="Path 69" d="M816.856,453.48s8.125,3.5,3.357,8.918S632.76,524.353,632.76,524.353Z" transform="translate(-148.188 -61.966)" fill="#388186"/>
    <path id="Path_70" data-name="Path 70" d="M395.367,149.918s-33.93-2.186-29.965,23.268c0,0-.795,4.5,3.018,6.54,0,0,.063-1.91,3.482-1.251a14.252,14.252,0,0,0,3.7.191,7.442,7.442,0,0,0,4.509-1.986h0s9.545-4.22,13.259-20.91c0,0,2.75-3.638,2.679-4.573l-5.75,2.616s1.955,4.421.42,8.1c0,0-.187-7.934-1.295-7.753-.223,0-2.973,1.537-2.973,1.537s3.366,7.705.821,13.3c0,0,.964-9.49-1.875-12.746l-4.036,2.521s3.938,7.953,1.268,14.446c0,0,.688-9.958-2.116-13.835l-3.661,3.055s3.706,7.839,1.447,13.224c0,0-.295-11.591-2.232-12.469,0,0-3.205,3.017-3.688,4.258,0,0,2.536,5.729.955,8.7,0,0-.955-7.724-1.786-7.762,0,0-3.188,5.118-3.518,8.593a19.484,19.484,0,0,1,2.741-9.109,9.368,9.368,0,0,0-4.875,2.7s.491-3.619,5.67-3.934c0,0,2.634-3.886,3.339-4.115,0,0-5.152-.468-8.268,1.012,0,0,2.75-3.409,9.206-1.91l3.572-3.151s-6.768-.955-9.643.105c0,0,3.313-3.017,10.617-.821l3.938-2.511s-5.777-1.327-9.215-.85c0,0,3.625-2.091,10.366.172l2.8-1.346s-4.223-.888-5.465-1.031-1.3-.506-1.3-.506a13.859,13.859,0,0,1,7.947.955S395.483,150.319,395.367,149.918Z" transform="translate(-118.747 -48.234)" fill="#388186"/>
    <path id="Path_71" data-name="Path 71" d="M929.967,259.5s-33.93-2.186-29.965,23.268c0,0-.795,4.5,3.018,6.54,0,0,.063-1.91,3.482-1.251a14.729,14.729,0,0,0,3.7.191,7.42,7.42,0,0,0,4.464-1.986h0s9.554-4.22,13.259-20.91c0,0,2.75-3.638,2.679-4.573l-5.732,2.616s1.955,4.421.42,8.1c0,0-.188-7.934-1.286-7.753-.223,0-2.982,1.537-2.982,1.537s3.366,7.7.83,13.3c0,0,.964-9.49-1.884-12.746l-4.036,2.521s3.938,7.953,1.268,14.446c0,0,.688-9.958-2.116-13.835l-3.652,3.055s3.7,7.839,1.438,13.224c0,0-.295-11.591-2.232-12.469,0,0-3.2,3.017-3.688,4.258,0,0,2.536,5.729.964,8.7,0,0-.964-7.724-1.786-7.762,0,0-3.188,5.118-3.518,8.593a19.42,19.42,0,0,1,2.75-9.109,9.41,9.41,0,0,0-4.884,2.7s.5-3.619,5.67-3.934c0,0,2.634-3.886,3.339-4.125,0,0-5.143-.458-8.268,1.022,0,0,2.75-3.409,9.206-1.91l3.572-3.151s-6.777-.955-9.643.1c0,0,3.3-3.017,10.617-.821l3.929-2.511s-5.777-1.327-9.215-.85c0,0,3.625-2.091,10.366.172l2.813-1.346s-4.232-.888-5.473-1.031-1.3-.506-1.3-.506a13.759,13.759,0,0,1,7.947.955S930.074,259.9,929.967,259.5Z" transform="translate(-177.073 -53.19)" fill="#388186" opacity="0.1"/>
    <path id="Path_72" data-name="Path 72" d="M458.5,313.621S443.718,280.843,424.9,297A6.131,6.131,0,0,0,421.029,303s1.563-.869,2.679,2.645a17.414,17.414,0,0,0,1.643,3.533,7.817,7.817,0,0,0,3.831,3.246h0s8.1,6.855,23.537,2.177c0,0,4.313.792,5.018.239l-4.929-4.077s-2.679,3.981-6.411,4.335c0,0,6.393-4.039,5.706-4.974-.143-.191-2.679-2.034-2.679-2.034s-4.652,6.9-10.456,7.256c0,0,8.215-3.724,9.482-7.972l-4.018-2.54s-4.581,7.562-11.179,8.23c0,0,8.465-4.211,10.259-8.717l-4.268-1.91s-4.6,7.275-10.1,7.8c0,0,9.322-5.929,9.09-8.173,0,0-4.027-1.509-5.277-1.365,0,0-3.411,5.146-6.625,5.146,0,0,5.831-4.669,5.473-5.423,0,0-5.732-.477-8.75.955a16.432,16.432,0,0,1,8.777-1.91,9.6,9.6,0,0,0-4.589-3.237s3.2-1.3,5.973,3.37c0,0,4.464.563,4.991,1.108,0,0-2.134-5.022-4.857-7.209,0,0,4.125.888,6.009,7.638l4.331,1.833s-2.491-6.8-4.786-8.946c0,0,4.072,1.614,5.848,9.548l3.964,2.444s-1.723-6.044-3.795-9.013c0,0,3.473,2.368,4.911,9.758l2.473,1.967s-1.339-4.382-1.786-5.6-.223-1.47-.223-1.47a16.25,16.25,0,0,1,3.107,7.877S458.182,313.907,458.5,313.621Z" transform="translate(-124.855 -54.686)" fill="#388186" opacity="0.1"/>
    <path id="Path_73" data-name="Path 73" d="M842.284,210s-14.777-32.777-33.608-16.623a6.143,6.143,0,0,0-3.866,6.006s1.572-.859,2.679,2.645a17.042,17.042,0,0,0,1.652,3.542,7.771,7.771,0,0,0,3.822,3.237h0s8.107,6.855,23.537,2.186c0,0,4.313.783,5.027.229l-4.9-4.086s-2.679,3.991-6.4,4.344c0,0,6.384-4.048,5.7-4.984-.143-.191-2.679-2.034-2.679-2.034s-4.643,6.9-10.456,7.256c0,0,8.224-3.724,9.491-7.963l-4.081-2.521s-4.572,7.552-11.179,8.23c0,0,8.465-4.22,10.268-8.727l-4.277-1.91s-4.6,7.285-10.09,7.8c0,0,9.313-5.929,9.081-8.163,0,0-4.018-1.518-5.268-1.365,0,0-3.411,5.137-6.634,5.137,0,0,5.839-4.669,5.482-5.423,0,0-5.732-.477-8.759.955a16.424,16.424,0,0,1,8.777-1.91,9.543,9.543,0,0,0-4.581-3.237s3.2-1.3,5.973,3.37c0,0,4.464.573,4.991,1.117,0,0-2.134-5.032-4.866-7.218,0,0,4.125.9,6.009,7.686l4.339,1.833s-2.491-6.808-4.786-8.956c0,0,4.072,1.614,5.839,9.548l3.973,2.444s-1.732-6.034-3.8-9.013c0,0,3.482,2.368,4.911,9.758l2.473,1.967s-1.33-4.382-1.786-5.6-.223-1.461-.223-1.461a16.293,16.293,0,0,1,3.1,7.877S842.007,210.306,842.284,210Z" transform="translate(-166.732 -49.999)" fill="#388186" opacity="0.1"/>
    <path id="Path_74" data-name="Path 74" d="M895.171,379.81s-14.777-32.787-33.635-16.632a6.143,6.143,0,0,0-3.866,6.006s1.571-.859,2.679,2.645a17.035,17.035,0,0,0,1.643,3.542,7.772,7.772,0,0,0,3.822,3.237h0s8.107,6.865,23.546,2.186c0,0,4.3.792,5.018.229l-4.929-4.077s-2.679,3.991-6.411,4.344c0,0,6.384-4.048,5.7-4.984-.143-.191-2.679-2.034-2.679-2.034s-4.643,6.9-10.456,7.266c0,0,8.224-3.733,9.491-7.972l-4.027-2.54s-4.572,7.562-11.179,8.23c0,0,8.465-4.22,10.268-8.727l-4.277-1.91s-4.6,7.275-10.09,7.8c0,0,9.322-5.929,9.09-8.173,0,0-4.027-1.518-5.277-1.365,0,0-3.411,5.137-6.634,5.137,0,0,5.839-4.669,5.482-5.423,0,0-5.732-.477-8.759.955a16.475,16.475,0,0,1,8.786-1.91,9.524,9.524,0,0,0-4.589-3.237s3.2-1.308,5.973,3.37c0,0,4.464.563,4.991,1.108,0,0-2.134-5.022-4.857-7.218,0,0,4.125.9,6.009,7.686l4.331,1.833s-2.491-6.808-4.786-8.946c0,0,4.072,1.6,5.839,9.548l3.973,2.435s-1.732-6.034-3.8-9.013c0,0,3.482,2.368,4.92,9.767l2.473,1.91s-1.339-4.382-1.786-5.6-.223-1.461-.223-1.461a16.194,16.194,0,0,1,3.1,7.877S894.894,380.1,895.171,379.81Z" transform="translate(-172.5 -57.679)" fill="#388186" opacity="0.1"/>
    <ellipse id="Ellipse_1" data-name="Ellipse 1" cx="20.528" cy="2.454" rx="20.528" ry="2.454" transform="translate(159.431 743.787)" fill="#388186" opacity="0.1"/>
    <ellipse id="Ellipse_2" data-name="Ellipse 2" cx="20.528" cy="2.454" rx="20.528" ry="2.454" transform="translate(25.224 702.083)" fill="#388186" opacity="0.1"/>
    <ellipse id="Ellipse_3" data-name="Ellipse 3" cx="20.528" cy="2.454" rx="20.528" ry="2.454" transform="translate(261.775 771.485)" fill="#388186" opacity="0.1"/>
    <ellipse id="Ellipse_4" data-name="Ellipse 4" cx="20.528" cy="2.454" rx="20.528" ry="2.454" transform="translate(786.042 711.153)" fill="#388186" opacity="0.1"/>
    <ellipse id="Ellipse_5" data-name="Ellipse 5" cx="20.528" cy="2.454" rx="20.528" ry="2.454" transform="translate(615.799 699.247)" fill="#388186" opacity="0.1"/>
    <ellipse id="Ellipse_6" data-name="Ellipse 6" cx="24.278" cy="4.459" rx="24.278" ry="4.459" transform="translate(501.793 753.307)" fill="#388186" opacity="0.1"/>
    <path id="Path_75" data-name="Path 75" d="M688.609,790.14s-33.8,18.675-16.34,40.673c0,0,1.643,4.774,6.393,4.44,0,0-.946-1.852,2.679-3.332a17.069,17.069,0,0,0,3.652-2.072,9.144,9.144,0,0,0,3.268-4.669h0s6.911-9.891,1.554-28.194c0,0,.7-5.175.089-6.015L685.8,797s4.241,3.046,4.732,7.524c0,0-4.464-7.514-5.357-6.683-.2.172-2.036,3.294-2.036,3.294s7.357,5.337,7.9,12.269c0,0-4.143-9.71-8.616-11.094l-2.562,4.888s8.036,5.232,8.929,13.1c0,0-4.67-9.977-9.438-11.992l-1.884,5.165s7.75,5.27,8.465,11.82c0,0-6.482-10.951-8.813-10.607,0,0-1.464,4.85-1.268,6.349,0,0,5.473,3.915,5.572,7.762,0,0-5.054-6.827-5.831-6.378,0,0-.321,6.865,1.232,10.436a21.718,21.718,0,0,1-2.241-10.436,11.6,11.6,0,0,0-3.241,5.576s-1.455-3.771,3.339-7.247c0,0,.455-5.337,1.009-6,0,0-5.188,2.712-7.393,6.034,0,0,.813-4.955,7.849-7.419l1.786-5.232s-7.036,3.189-9.206,6c0,0,1.563-4.917,9.759-7.275l2.429-4.774s-6.25,2.253-9.3,4.774c0,0,2.366-4.23,10.054-6.177l1.973-3.008s-4.536,1.728-5.8,2.349-1.518.315-1.518.315a15.95,15.95,0,0,1,8.134-3.953S688.921,790.465,688.609,790.14Z" transform="translate(-151.707 -77.192)" fill="#388186"/>
    <path id="Path_76" data-name="Path 76" d="M767.212,403.647c-5.839-16.966-37.984-18.561-51.931-14.236-9.911,3.084-30.8,6.559-41.966,8.307l-.723-.735c1.447-.458,1.482-1.585,1.3-3.256a54.471,54.471,0,0,1,.089-6.607c6.84,2.272,12.929-3.1,12.929-3.1h0c8.036-3.819,5.875-20.165,7.411-24.633,1.152-3.342,2.393-23.029,2.947-32.844h.116l.063-3.294c.08-1.423.116-2.253.116-2.253s.786-24,2.321-28.863c1.429-4.468,2.589-26.982,2.768-30.553v-.468l-.116-2.081c.08-1.518.116-3.208.107-4.984,0-8.163-.795-18.446-.893-20.108v-.869c.063-3.485-.348-20.938-14.233-27.536-5.116-2.444-11.268-5.356-17.224-8.192-1.536-14.178-5.045-28.28-4.741-42.564,0-2.148.179-4.3.375-6.435,0,.621-.062,1.251-.071,1.91v4.163c.527-17.864,6.84-35.823,6.25-53.3-.054,1.709-.17,3.428-.321,5.146A59.179,59.179,0,0,0,670.074,88.7c-.536-2.015-1.259-4.1-2.8-5.442a11.128,11.128,0,0,0-4.893-2.072,92.706,92.706,0,0,0-12.849-2.559,21.785,21.785,0,0,0-2.893-6.006c-9.054-13.29-22.465-25.779-38.323-28.643-7.956-1.432-17.108-.239-22.519,5.843a17.546,17.546,0,0,0-1.589,1.719c-2.911,3.714-4.161,8.593-7.143,12.3-.2.248-.42.477-.634.716C570.588,70.135,561.49,71.3,555,76.312a26.327,26.327,0,0,0-3.205,2.988,57.487,57.487,0,0,0-7,9.1c-2.92,4.392-5.92,8.965-6.848,14.207-1.866,10.5,4.822,20.461,6.063,31.03,2.768,23.65-21.706,44.636-17.072,67.97a31.764,31.764,0,0,0,7.875,15.114c-9.545,9.242-17.67,18.207-17.67,18.207v.535h-1.509l.152,1.91h-.152l.83,10.359-.83,15.085v1.423h.054c.277,5.528,1.375,25.407,2.679,29.6,1.536,4.86,2.313,28.863,2.313,28.863s1.7,33.923,3.25,38.411-.652,20.785,7.411,24.633h0a16.4,16.4,0,0,0,8.1,3.59c-.411,3.571-.152,6.158,1.179,6.97a3.706,3.706,0,0,0,1.875.573,21.709,21.709,0,0,0-1.455,2.721,35.788,35.788,0,0,1-9.357-2.358c-8.661-3.819-37.4-12.412-45.752-6.368s-28.439,11.524-19.161,35.852,13.6,24.939,13.6,24.939a34.291,34.291,0,0,1,7.42,7.972c2.786,4.478,28.742,14.723,35.233,14.723a59.481,59.481,0,0,1,8.259.439s-7.045,6.607-6.107,10.445-2.143,34.563-2.143,34.563,7.143,7.7,10.2-2.4l.107.153c.571.831,3.661,4.583,9.474-.153a52.767,52.767,0,0,1,7.554-5.118l28.144-4.258a74.508,74.508,0,0,1,8.813-.067c4.464.391,8.848-2.435,11.608-4.621,5.831,2.368,12.384,4.955,15.5,5.9,6.322,1.91,35.376,10.245,42.171,7.638a9.478,9.478,0,0,0,3.661-2.788l6.482.22-3.036.649s5.911.105,13.947.22l-.339.21,10.081-.1c14.751.143,31.323.191,33.5-.334,3.411-.812,21.135-.239,26.358,0H748.7s19.474-4.153,11.438-25.282c-6.179-16.231-25.171-20.948-33.6-22.246,2.375-.506,4.42-.9,5.777-1.127,5.884-.955,17.313-6.683,18.242-8.641s10.509-7.638,12.983-10.875S773.078,420.613,767.212,403.647Zm-161.3,47.481-.955.334-.643.229-1.232,1.3c-.982-.707-2.036-1.451-3.134-2.215C601.884,450.9,603.875,451.022,605.911,451.127Zm85.1,26.906Z" transform="translate(-129.917 -43.42)" fill="url(#linear-gradient)"/>
    <path id="Path_77" data-name="Path 77" d="M686.65,359.422s13.661,38.191,21.429,34.372,5.661-20.05,7.143-24.5,3.125-38.191,3.125-38.191.75-23.869,2.232-28.7c1.375-4.44,2.491-26.829,2.679-30.352v-.468l-1.473-27.688-8.34-2.225-19.34,7.638-2.679,16.355-1.045,6.387-.446,2.721Z" transform="translate(-153.839 -52.386)" fill="#be6f72"/>
    <path id="Path_78" data-name="Path 78" d="M691.69,358.3s13.036,11.41,16.965,12.412,6.339,9.9,6.339,9.9" transform="translate(-154.37 -57.661)" opacity="0.1"/>
    <path id="Path_79" data-name="Path 79" d="M562.609,361.172s-13.661,38.191-21.429,34.372-5.661-20.05-7.143-24.5-3.125-38.191-3.125-38.191-.75-23.869-2.232-28.7c-1.375-4.44-2.491-26.829-2.679-30.352v-.468l1.482-27.688,8.34-2.225,19.34,7.638,2.679,16.355,1.045,6.387.446,2.721Z" transform="translate(-136.309 -52.465)" fill="#be6f72"/>
    <rect id="Rectangle_22" data-name="Rectangle 22" width="30.492" height="50.823" transform="translate(484.56 104.328)" fill="#3e373a"/>
    <rect id="Rectangle_23" data-name="Rectangle 23" width="30.492" height="50.823" transform="translate(484.56 104.328)" opacity="0.1"/>
    <path id="Path_80" data-name="Path 80" d="M560.111,406.446s-10.42,12.25-6.554,14.474,28.876,43.92,28.876,43.92,82.146,10.818,97.638-5.414S695.25,414.2,695.25,414.2s-12.447,2.864-13.8,1.308-8.813-9.061-8.813-9.061S567.254,399.61,560.111,406.446Z" transform="translate(-139.35 -59.701)" fill="#4b4b5b"/>
    <path id="Path_81" data-name="Path 81" d="M560.111,406.446s-10.42,12.25-6.554,14.474,28.876,43.92,28.876,43.92,82.146,10.818,97.638-5.414S695.25,414.2,695.25,414.2s-12.447,2.864-13.8,1.308-8.813-9.061-8.813-9.061S567.254,399.61,560.111,406.446Z" transform="translate(-139.35 -59.701)" opacity="0.02"/>
    <path id="Path_82" data-name="Path 82" d="M705.31,240.257l-26.787,22.915-8.1.63-2.973.229-49.939,3.915L565.724,263.9l-7.706-.6-9.822-.764-20.536-21s14.536-16.651,27.269-27.889c5.018-4.44,9.759-8.03,13.215-9.443l.589-.22a14.731,14.731,0,0,0,5.661-4.22c10.054-11.085,19.349-38.439,19.349-38.439s44.35-24.5,38.993,7.638,19.938,24.194,19.938,24.194l8.34,4.067,3.295,1.614,8.4,4.115,18.956,9.3C706.542,219.567,705.31,240.257,705.31,240.257Z" transform="translate(-136.659 -48.348)" fill="#be6f72"/>
    <ellipse id="Ellipse_7" data-name="Ellipse 7" cx="39.885" cy="42.65" rx="39.885" ry="42.65" transform="translate(438.897 53.84)" opacity="0.1"/>
    <path id="Path_83" data-name="Path 83" d="M705.195,273.08H526v-.468l1.482-27.688s14.536-16.651,27.269-27.889l112.5-4.774,5.232-5.9,18.956,9.3c14.884,7.314,13.688,28,13.688,28S707.168,267.637,705.195,273.08Z" transform="translate(-136.481 -50.789)" opacity="0.1"/>
    <path id="Path_84" data-name="Path 84" d="M705.195,272.08H526v-.468l1.482-27.688s14.536-16.651,27.269-27.889l112.5-4.774,5.232-5.9,18.956,9.3c14.884,7.314,13.688,28,13.688,28S707.168,266.637,705.195,272.08Z" transform="translate(-136.481 -50.744)" fill="#e7c7ca"/>
    <path id="Path_85" data-name="Path 85" d="M592.451,193.525s28.269,38.516,65.922-.792,4.17,87.677,4.17,87.677L581.29,290.721Z" transform="translate(-142.413 -49.831)" opacity="0.1"/>
    <path id="Path_86" data-name="Path 86" d="M592.451,195.525s28.269,38.516,65.922-.792,4.17,87.677,4.17,87.677L581.29,292.721Z" transform="translate(-142.413 -49.922)" fill="#e7c7ca"/>
    <path id="Path_87" data-name="Path 87" d="M666.821,202.925l2.991,48.779,3.206,16.231,2.447,12.412s6.25,95.477,4.464,100.251.893,8.593,1.268,11.133-.375,8.918-.08,11.782,0,4.134-6.839,3.113-16.376-2.8-16.376-2.8-24.108,1.91-32.439-1.27-24.108-3.189-24.108-3.189-23.813.64-31.546-.315-11.911,10.187-16.965,7,5.947-34.047,9.518-42.965-4.759-31.508-4.759-31.508l10.715-63.559,2.384-14.408V208.32l.589-.22a14.73,14.73,0,0,0,5.661-4.22l2.679,45.581,83.932,3.189v-51.3" transform="translate(-139.206 -50.562)" opacity="0.1"/>
    <path id="Path_88" data-name="Path 88" d="M666.821,200.925l2.991,48.779,3.206,16.231,2.447,12.412s6.25,95.477,4.464,100.251.893,8.593,1.268,11.133-.375,8.918-.08,11.782,0,4.134-6.839,3.113-16.376-2.8-16.376-2.8-24.108,1.91-32.439-1.27-24.108-3.189-24.108-3.189-23.813.64-31.546-.315-11.911,10.187-16.965,7,5.947-34.047,9.518-42.965-4.759-31.507-4.759-31.507l10.715-63.559,2.384-14.408V206.32l.589-.22a14.73,14.73,0,0,0,5.661-4.22l2.679,45.581,83.932,3.189v-51.3" transform="translate(-139.206 -50.472)" fill="#e7c7ca"/>
    <path id="Path_89" data-name="Path 89" d="M674.975,92.249a10.769,10.769,0,0,0-2.679-5.4,10.586,10.586,0,0,0-4.714-2.062,87.791,87.791,0,0,0-12.393-2.54,21.873,21.873,0,0,0-2.679-5.948c-8.75-13.214-21.7-25.674-36.93-28.49-7.974-1.48-17.215-.153-22.322,6.569-2.8,3.695-4.009,8.593-6.84,12.221-5.456,7.046-15.3,7.915-22.179,13.367-3.67,2.864-6.331,7.018-8.929,11.047-2.813,4.363-5.706,8.908-6.6,14.121-1.786,10.417,4.652,20.346,5.839,30.858,2.679,23.516-20.894,44.378-16.438,67.579,2.6,13.529,14.286,23.058,26.376,27.889,4.259,1.709,9.125,3.409,11.117,7.781.893,1.91,1.045,4.115,1.884,6.044,2.822,6.435,12.1,6.683,17.081,2s6.554-12.269,7.143-19.344c2.393-30.9-9.179-61.421-7.831-92.393.4-9.366,2.866-19.993,10.715-24.232,10.563-5.729,23.269,3.819,34.894,2a78.827,78.827,0,0,1,3.339,45.17c-1.848,8.24-5.045,16.231-5.277,24.729-.348,12.937,6.179,24.757,11.822,36.2a20.118,20.118,0,0,1,2.384,6.979,17.847,17.847,0,0,1-1.277,7.3c-3.188,9.175-8.688,17.692-9.313,27.459a4.686,4.686,0,0,0,.67,3.265,3.73,3.73,0,0,0,2.3,1.108c9.643,1.766,17.983-7.371,22.688-16.546a81.621,81.621,0,0,0,8.947-32.959c.973-19.439-5.545-38.563-5.143-58.022C671.1,135.863,680.448,113.588,674.975,92.249Z" transform="translate(-137.689 -43.593)" opacity="0.1"/>
    <path id="Path_90" data-name="Path 90" d="M675.975,91.249a10.769,10.769,0,0,0-2.679-5.4,10.586,10.586,0,0,0-4.714-2.062,87.787,87.787,0,0,0-12.393-2.54,21.875,21.875,0,0,0-2.679-5.948c-8.75-13.214-21.7-25.674-36.93-28.49-7.974-1.48-17.215-.153-22.322,6.569-2.8,3.695-4.009,8.593-6.839,12.221-5.456,7.046-15.3,7.915-22.18,13.367-3.67,2.864-6.331,7.018-8.929,11.047-2.813,4.363-5.706,8.908-6.6,14.121-1.786,10.417,4.652,20.346,5.839,30.858,2.679,23.516-20.894,44.378-16.438,67.579,2.6,13.529,14.286,23.058,26.376,27.889,4.259,1.709,9.125,3.409,11.117,7.781.893,1.91,1.045,4.115,1.884,6.044,2.822,6.435,12.1,6.683,17.081,2s6.554-12.269,7.143-19.344c2.393-30.9-9.179-61.421-7.831-92.393.4-9.366,2.866-19.993,10.715-24.232,10.563-5.729,23.269,3.819,34.894,2a78.825,78.825,0,0,1,3.339,45.17c-1.848,8.24-5.045,16.231-5.277,24.729-.348,12.937,6.179,24.757,11.822,36.2a20.121,20.121,0,0,1,2.384,6.979,17.847,17.847,0,0,1-1.277,7.3c-3.188,9.175-8.688,17.692-9.313,27.459a4.686,4.686,0,0,0,.67,3.265,3.73,3.73,0,0,0,2.3,1.108c9.643,1.766,17.983-7.371,22.688-16.546a81.621,81.621,0,0,0,8.947-32.959c.973-19.439-5.545-38.563-5.143-58.022C672.1,134.863,681.448,112.588,675.975,91.249Z" transform="translate(-137.798 -43.548)" fill="#3e373a"/>
    <path id="Path_91" data-name="Path 91" d="M581.79,491.457l35.421,1.213L612.13,464.58,585,467.339Z" transform="translate(-63.481 -21.011)" fill="#c3c7d9"/>
    <path id="Path_92" data-name="Path 92" d="M773.547,463.617c-2.384,3.179-11.608,8.908-12.5,10.818s-11.9,7.638-17.563,8.593-23.51,5.1-26.787,7.323c-2.348,1.6-21.2,6.683-33.582,9.5a89.74,89.74,0,0,1-10.17,1.957c-5.357.315-63.985-21.005-63.985-21.005l11.3-12.412.625-.229c3.2-1.155,17.965-6.492,26.162-9.032C656.283,456.265,667,444.492,667,444.492s15.768-5.729,17.858-6.368-5.357-22.275-5.357-22.275,34.225-5.079,47.618-9.385,44.35-2.712,50,14.159S775.967,460.437,773.547,463.617Z" transform="translate(-145.549 -59.747)" fill="#4b4b5b"/>
    <path id="Path_93" data-name="Path 93" d="M609.552,521.152s-6.84,7.638-13.688,7.008-30.8,1.91-30.8,1.91a47.361,47.361,0,0,0-12.063,7.476c-5.6,4.717-8.572.955-9.125.153l-.1-.153c-2.982,10.035-9.822,2.387-9.822,2.387s2.973-30.553,2.063-34.372,5.884-10.378,5.884-10.378L549.943,493,570.3,487.42l29.171,10.818Z" transform="translate(-137.219 -63.5)" fill="#e7c7ca"/>
    <path id="Path_94" data-name="Path 94" d="M549.907,493.26l-6.027,44.7-.1-.153c-2.982,10.035-9.822,2.387-9.822,2.387s2.973-30.553,2.063-34.372,5.884-10.378,5.884-10.378Z" transform="translate(-137.157 -63.765)" opacity="0.1"/>
    <path id="Path_95" data-name="Path 95" d="M599,360.08s15.768,5.729,29.465,0" transform="translate(-144.266 -57.741)" opacity="0.1"/>
    <path id="Path_96" data-name="Path 96" d="M659.29,371.42s6.545,3.494,11.608,0" transform="translate(-150.821 -58.254)" opacity="0.1"/>
    <path id="Path_97" data-name="Path 97" d="M659.29,380.024s11.009,1.575,13.1-1.6" transform="translate(-150.823 -58.571)" opacity="0.1"/>
    <path id="Path_98" data-name="Path 98" d="M655.29,398.433s20.679-2.864,25.813-6.683" transform="translate(-150.403 -59.174)" opacity="0.1"/>
    <path id="Path_99" data-name="Path 99" d="M584.62,391.75s11.608,7,20.242,6.683" transform="translate(-142.687 -59.174)" opacity="0.1"/>
    <path id="Path_100" data-name="Path 100" d="M683.1,502.869a89.756,89.756,0,0,1-10.17,1.957c-5.357.315-63.985-21-63.985-21l11.3-12.412.625-.229c1.786,1.346,3.25,2.5,4.295,3.38,4.92,4.144,9.67-1.27,11.456-1.27s17.26,13.682,17.26,13.682,14.286,3.5,16.67,6.683,10.715,2.549,12.2,4.774C683.2,499.117,683.256,500.807,683.1,502.869Z" transform="translate(-145.407 -62.766)" opacity="0.1"/>
    <path id="Path_101" data-name="Path 101" d="M558.294,417.215s-14.447.888-22.778-2.864-36.01-12.412-44.046-6.33-27.385,11.457-18.456,35.651,13.1,24.824,13.1,24.824a33.565,33.565,0,0,1,7.143,7.925c2.679,4.459,27.68,14.637,33.93,14.637s17.26,0,32.733,11.457,29.465,12.737,29.465,12.737,19.644,8.593,25.76,10.5,34.064,10.178,40.618,7.638,10.715-18.465,10.715-18.465,2.973-14.322,1.482-16.546-9.822-1.594-12.2-4.774-16.67-6.683-16.67-6.683-15.438-13.691-17.224-13.691-6.536,5.4-11.456,1.27A259.764,259.764,0,0,0,579.6,453.5C568.294,447.128,558.294,417.215,558.294,417.215Z" transform="translate(-130.449 -59.814)" fill="#4b4b5b"/>
    <path id="Path_102" data-name="Path 102" d="M536.27,427.4a16.275,16.275,0,0,1,14.635,4.134c7.143,6.368,31.18,19.153,31.18,19.153" transform="translate(-137.439 -60.769)" opacity="0.1"/>
    <path id="Path_103" data-name="Path 103" d="M731.756,427s-31.849,5.156-37.8,12.154" transform="translate(-154.638 -60.768)" opacity="0.1"/>
    <path id="Path_104" data-name="Path 104" d="M767.471,535.159h-1.4c-5.036-.191-22.1-.764-25.385,0-3.866.955-55.065,0-55.065,0l10.009-2.225s-3.714-13.921-1.357-15.076c0,0-13.393-9.433-3.295-15.8a29.515,29.515,0,0,1,20.983-3.685l25.349-9.185,4.866-1.766s28.573,1.595,36.3,22.6S767.471,535.159,767.471,535.159Z" transform="translate(-153.811 -63.5)" fill="#e7c7ca"/>
    <path id="Path_105" data-name="Path 105" d="M773.672,535.161h-1.4c8.313-7.333,27.117-29.655-28.76-45.925l4.866-1.766s28.573,1.594,36.3,22.6S773.672,535.161,773.672,535.161Z" transform="translate(-160.053 -63.503)" opacity="0.1"/>
    <ellipse id="Ellipse_8" data-name="Ellipse 8" cx="1.563" cy="1.671" rx="1.563" ry="1.671" transform="translate(559.638 443.569)" fill="#4b4b5b"/>
    <ellipse id="Ellipse_9" data-name="Ellipse 9" cx="1.563" cy="1.671" rx="1.563" ry="1.671" transform="translate(550.577 446.328)" fill="#4b4b5b"/>
    <g id="Group_1" data-name="Group 1" transform="translate(400.995 60.046)" opacity="0.1">
      <path id="Path_106" data-name="Path 106" d="M652.642,141.194a78.649,78.649,0,0,0-5.125-30.686c-11.608,1.852-24.322-7.724-34.894-2-7.822,4.239-10.277,14.866-10.715,24.232-.107,2.473-.125,4.946-.08,7.419,0-.878,0-1.766.08-2.645.411-9.366,2.866-19.993,10.715-24.232,10.572-5.729,23.269,3.819,34.894,2a78.293,78.293,0,0,1,5.125,25.913Z" transform="translate(-545.569 -106.326)"/>
      <path id="Path_107" data-name="Path 107" d="M557.25,139.538a34.01,34.01,0,0,0-.116-6.244c-.946-8.4-5.241-16.432-6.018-24.624-1,9.882,4.884,19.372,6.018,29.4A6.368,6.368,0,0,1,557.25,139.538Z" transform="translate(-540.127 -106.417)"/>
      <path id="Path_108" data-name="Path 108" d="M602.992,229.41c-.554,7.084-2.116,14.656-7.143,19.353s-14.286,4.44-17.081-2c-.893-1.91-1.027-4.134-1.893-6.044-1.982-4.373-6.857-6.072-11.117-7.781-12.1-4.841-23.769-14.322-26.367-27.889a31.215,31.215,0,0,1-.473-3.724,32.136,32.136,0,0,0,.473,8.5c2.6,13.529,14.286,23.048,26.367,27.889,4.259,1.709,9.134,3.409,11.117,7.781.893,1.91,1.045,4.115,1.893,6.044,2.813,6.435,12.09,6.683,17.081,2s6.545-12.269,7.143-19.353q.408-5.593.277-11.209C603.269,225.142,603.153,227.281,602.992,229.41Z" transform="translate(-538.823 -110.608)"/>
      <path id="Path_109" data-name="Path 109" d="M687.93,155.175v4.134c.5-17.759,6.59-35.613,5.991-53C693.457,122.388,688.269,138.83,687.93,155.175Z" transform="translate(-554.793 -106.31)"/>
      <path id="Path_110" data-name="Path 110" d="M664.79,230.677A13.143,13.143,0,0,0,665,227.23a19.947,19.947,0,0,0-2.384-6.979c-5.161-10.5-11.045-21.253-11.742-32.911,0,.5-.062.955-.071,1.489-.357,12.928,6.17,24.757,11.813,36.2a23.83,23.83,0,0,1,2.179,5.652Z" transform="translate(-550.815 -109.975)"/>
      <path id="Path_111" data-name="Path 111" d="M689.513,218.17a81.739,81.739,0,0,1-9.009,32.959c-4.714,9.175-13.045,18.313-22.7,16.546a3.689,3.689,0,0,1-2.3-1.117,2.424,2.424,0,0,1-.42-.745c-.107.745-.2,1.5-.25,2.263a4.645,4.645,0,0,0,.67,3.256,3.689,3.689,0,0,0,2.3,1.117c9.652,1.766,17.983-7.371,22.7-16.546a81.738,81.738,0,0,0,9.009-32.959c.107-2.234.116-4.459.054-6.683C689.548,216.9,689.548,217.53,689.513,218.17Z" transform="translate(-551.242 -111.283)"/>
    </g>
    <path id="Path_112" data-name="Path 112" d="M695.31,518.717s22.6,10.14,37.5-12.3" transform="translate(-154.785 -64.36)" fill="none" opacity="0.1"/>
    <path id="Path_113" data-name="Path 113" d="M700.29,537.584s18.456-12.832,41.966-.42" transform="translate(-155.334 -65.506)" fill="none" opacity="0.1"/>
    <path id="Path_114" data-name="Path 114" d="M561.93,534.346s7.75-18.694,28.448-4.44" transform="translate(-140.221 -65.18)" fill="none" opacity="0.1"/>
    <path id="Path_115" data-name="Path 115" d="M533.79,244.365l15.8-15.276s61.279-4.3,63.815,17.978c0,0,21.724-26.409,67.413-20.528L700.154,243l-53.431,25.072L594.8,287.33l-38.243-18.3Z" transform="translate(-137.314 -51.663)" opacity="0.1"/>
    <path id="Path_116" data-name="Path 116" d="M533.79,245.365l15.8-15.276s61.279-4.3,63.815,17.978c0,0,21.724-26.409,67.413-20.528L700.154,244l-53.431,25.072L594.8,288.33l-38.243-18.3Z" transform="translate(-137.314 -51.708)" fill="#d5d6db"/>
    <path id="Path_117" data-name="Path 117" d="M437.38,204.83l6.991,89.434,74.11,3.981-3.214-89.052-.062-1.5Z" transform="translate(-47.772 -9.264)" opacity="0.1"/>
    <path id="Path_118" data-name="Path 118" d="M437.38,202.83l6.991,89.434,74.11,3.981-3.214-89.052-.062-1.5Z" transform="translate(-47.772 -9.173)" fill="#388186"/>
    <path id="Path_119" data-name="Path 119" d="M626.159,202.83,549.71,215.089v89.835l74.708-11.543Z" transform="translate(-60.034 -9.173)" opacity="0.1"/>
    <path id="Path_120" data-name="Path 120" d="M626.159,200.83,549.71,213.089v89.835l74.708-11.543Z" transform="translate(-60.034 -9.083)" fill="#388186"/>
    <path id="Path_121" data-name="Path 121" d="M610.186,223.79l-41.3,4.908.9,15.047,40.368-4.717Z" transform="translate(-62.081 -10.121)" fill="#fff" opacity="0.3"/>
    <path id="Path_122" data-name="Path 122" d="M538.075,386.307l4.206,12.1s6.25,5.729,13.09,2.864,12.8-4.287,15.777-7.075,7.143-16.794,7.143-16.794,4.17-15.276,8.331-19.1,15.179-56.437,0-51.29S559.834,359.9,559.834,359.9s-2.679,3.494-6.545,3.819-11.608-.64-13.1,2.864S533.61,379.309,538.075,386.307Z" transform="translate(-137.454 -55.325)" fill="#be6f72"/>
    <path id="Path_123" data-name="Path 123" d="M635.6,258.8a24.512,24.512,0,0,1-22.42-5.977l3.223,89.042s7.59,8.784,19.2,6.779Z" transform="translate(-145.805 -52.89)" opacity="0.1"/>
    <path id="Path_124" data-name="Path 124" d="M635.6,256.8a24.512,24.512,0,0,1-22.42-5.977l3.223,89.042s7.59,8.784,19.2,6.779Z" transform="translate(-145.805 -52.8)" fill="#388186"/>
    <path id="Path_125" data-name="Path 125" d="M635.6,256.8a24.512,24.512,0,0,1-22.42-5.977l3.223,89.042s7.59,8.784,19.2,6.779Z" transform="translate(-145.805 -52.8)" opacity="0.1"/>
    <path id="Path_126" data-name="Path 126" d="M640.29,246.15s31.1-10.168,39.207-8.736" transform="translate(-148.783 -52.187)" opacity="0.1"/>
    <path id="Path_127" data-name="Path 127" d="M597.11,241.643s-30.144-7.638-35.18-5.471" transform="translate(-140.228 -52.12)" opacity="0.1"/>
    <path id="Path_128" data-name="Path 128" d="M662.25,247.648s20.8-8.154,28.314-4.277" transform="translate(-151.165 -52.416)" opacity="0.1"/>
    <path id="Path_129" data-name="Path 129" d="M650.52,461.338a67.807,67.807,0,0,1,10.25-6.808c5.357-2.759,15.179-9.92,15.179-9.92" transform="translate(-149.882 -61.564)" opacity="0.1"/>
    <path id="Path_130" data-name="Path 130" d="M559.134,360.08s-13.045,11.41-16.965,12.412-6.339,9.9-6.339,9.9" transform="translate(-137.368 -57.741)" opacity="0.1"/>
    <path id="Path_131" data-name="Path 131" d="M708.569,384.528l-4.161,12.126s-6.25,5.729-13.1,2.864-12.8-4.287-15.777-7.075-7.143-16.794-7.143-16.794-4.161-15.276-8.331-19.1-15.179-56.437,0-51.29,26.787,52.885,26.787,52.885,2.679,3.494,6.545,3.819,11.608-.64,13.1,2.864S713.033,377.559,708.569,384.528Z" transform="translate(-150.117 -55.246)" fill="#be6f72"/>
    <path id="Path_132" data-name="Path 132" d="M707.15,364.94s8.527,5.862,8.491,12.87" transform="translate(-156.037 -57.961)" opacity="0.1"/>
    <ellipse id="Ellipse_10" data-name="Ellipse 10" cx="39.885" cy="42.65" rx="39.885" ry="42.65" transform="translate(439.039 51.749)" fill="#be6f72"/>
    <path id="Path_133" data-name="Path 133" d="M595.7,128.17c4.839-.812,9.081-3.819,13.706-5.547,10.349-3.886,21.8-1.222,32.269,2.282,4.018,1.346,8.1,2.864,12.313,2.864s8.688-1.843,10.84-5.729c1.982-3.571,1.6-8.211-.071-11.963s-4.464-6.769-7.286-9.615c-9.286-9.376-20.8-18.141-33.546-17.186-5.125.391-10.027,2.349-14.742,4.516a158.643,158.643,0,0,0-17.3,9.319c-4.295,2.664-12.25,6.225-14.724,11.094C571.53,119.176,586.951,129.64,595.7,128.17Z" transform="translate(-141.823 -45.219)" fill="#3e373a"/>
    <path id="Path_134" data-name="Path 134" d="M664.828,119.322c-2.152,3.886-6.625,5.729-10.84,5.729s-8.295-1.461-12.322-2.807c-10.474-3.5-21.912-6.177-32.269-2.282-4.616,1.728-8.866,4.774-13.706,5.538-7.054,1.184-18.411-5.385-19.644-13.739-1.384,9.653,11.786,17.921,19.644,16.6,4.839-.812,9.09-3.819,13.706-5.538,10.358-3.9,21.8-1.222,32.269,2.282,4.027,1.346,8.1,2.864,12.322,2.807s8.688-1.833,10.84-5.729a11.839,11.839,0,0,0,1.25-6.979,10.8,10.8,0,0,1-1.25,4.115Z" transform="translate(-141.823 -46.51)" opacity="0.1"/>
    <path id="Path_135" data-name="Path 135" d="M1036.252,661.63s5.295,7.4-2.447,18.58-14.117,20.614-11.545,27.583c0,0,11.679-20.757,21.179-21.053S1046.69,674.109,1036.252,661.63Z" transform="translate(-190.493 -71.38)" fill="#388186"/>
    <path id="Path_136" data-name="Path 136" d="M1036.288,661.63a9.433,9.433,0,0,1,1.08,2.32c9.268,11.648,14.215,22.523,5.295,22.79-8.3.258-18.26,16.136-20.644,20.136a9.833,9.833,0,0,0,.277.955s11.679-20.757,21.179-21.053S1046.726,674.109,1036.288,661.63Z" transform="translate(-190.53 -71.38)" opacity="0.1"/>
    <path id="Path_137" data-name="Path 137" d="M1048.853,671.431c0,2.607-.277,4.717-.607,4.717s-.616-2.11-.616-4.717.339-1.375.679-1.375S1048.853,668.825,1048.853,671.431Z" transform="translate(-193.273 -71.747)" fill="#ffd037"/>
    <path id="Path_138" data-name="Path 138" d="M1052.29,674.683c-2.134,1.241-4,2-4.161,1.68s1.438-1.585,3.572-2.864,1.295-.344,1.455,0S1054.432,673.432,1052.29,674.683Z" transform="translate(-193.325 -71.887)" fill="#ffd037"/>
    <path id="Path_139" data-name="Path 139" d="M1005.235,661.63s-5.295,7.4,2.447,18.58,14.117,20.614,11.536,27.583c0,0-11.67-20.757-21.179-21.053S994.824,674.109,1005.235,661.63Z" transform="translate(-187.46 -71.38)" fill="#388186"/>
    <path id="Path_140" data-name="Path 140" d="M1005.235,661.63a9.435,9.435,0,0,0-1.08,2.32c-9.268,11.648-14.215,22.523-5.295,22.79,8.295.258,18.26,16.136,20.644,20.136a7.761,7.761,0,0,1-.286.955s-11.67-20.757-21.179-21.053S994.824,674.109,1005.235,661.63Z" transform="translate(-187.46 -71.38)" opacity="0.1"/>
    <path id="Path_141" data-name="Path 141" d="M995.64,671.431c0,2.607.268,4.717.607,4.717s.616-2.11.616-4.717-.348-1.375-.679-1.375S995.64,668.825,995.64,671.431Z" transform="translate(-187.704 -71.747)" fill="#ffd037"/>
    <path id="Path_142" data-name="Path 142" d="M991.7,674.683c2.134,1.241,4,2,4.161,1.68s-1.438-1.585-3.572-2.864-1.295-.344-1.455,0S989.561,673.432,991.7,674.683Z" transform="translate(-187.143 -71.887)" fill="#ffd037"/>
    <ellipse id="Ellipse_11" data-name="Ellipse 11" cx="55.359" cy="9.08" rx="55.359" ry="9.08" transform="translate(776.408 674.891)" fill="#388186" opacity="0.1"/>
    <path id="Path_143" data-name="Path 143" d="M1047.4,699.366l-.268,2.311-.375,3.265-.152,1.365-.375,3.265-.161,1.365-.366,3.256-4.241,37.141c-.375,3.313-5.438,5.9-11.554,5.9H1007.9c-6.116,0-11.17-2.588-11.554-5.9l-4.241-37.141-.375-3.256-.152-1.365-.375-3.265-.161-1.365-.366-3.265-.268-2.311c-.205-1.91,2.527-3.456,5.991-3.456h45.02C1044.875,695.91,1047.616,697.485,1047.4,699.366Z" transform="translate(-187.143 -72.93)" fill="#65617d"/>
    <path id="Path_144" data-name="Path 144" d="M958.588,658.53l-.366,3.265H902.505l-.375-3.265Z" transform="translate(-98.596 -29.783)" fill="#9d9cb5"/>
    <path id="Path_145" data-name="Path 145" d="M958.124,663.38l-.366,3.265H903.1l-.375-3.265Z" transform="translate(-98.659 -30.003)" fill="#9d9cb5"/>
    <path id="Path_146" data-name="Path 146" d="M957.661,668.23l-.375,3.265h-53.6l-.366-3.265Z" transform="translate(-98.724 -30.222)" fill="#9d9cb5"/>
  </g>
</svg>
